<svg xmlns="http://www.w3.org/2000/svg" xmlns:xlink="http://www.w3.org/1999/xlink" xmlns:inkscape="http://www.inkscape.org/namespaces/inkscape" version="1.1" width="1080" height="470.5818" viewBox="0 0 1080 470.5818">
<defs>
<g id="mask_1_contents">
<rect x="0" y="0" width="100%" height="100%" fill-opacity="0"/>
<g>
<clipPath id="clip_2">
<path transform="matrix(1,0,0,-1,0,470.5818)" d="M0 0H1080V470.5818H0Z"/>
</clipPath>
<g clip-path="url(#clip_2)">
<path transform="matrix(1,0,0,-1,0,470.5818)" d="M0 470.5818H1080V-.000031H0V470.5818Z"/>
</g>
</g>
</g>
<mask id="mask_1" mask-type="alpha">
<use xlink:href="#mask_1_contents"/>
</mask>
<clipPath id="clip_3">
<path transform="matrix(1,0,0,-1,0,470.5818)" d="M0 0H1080V470.5818H0Z"/>
</clipPath>
</defs>
<g>
<g mask="url(#mask_1)">
<g>
<g clip-path="url(#clip_3)">
<path transform="matrix(1,0,0,-1,339.2611,470.58106)" d="M18.110352 45.461915C20.412896 45.4619 22.590903 45.243234 24.644532 44.807619 26.698203 44.43422 28.50277 43.74961 30.058594 42.753908 31.863379 41.633699 33.29554 40.046884 34.353517 37.993165 35.411348 35.93956 35.9404 33.388048 35.94043 30.338868V1.120117H30.805665L30.058594 8.774414H29.685547C28.93875 7.59201 27.942879 6.472 26.698243 5.414062 25.453658 4.356171 24.053759 3.422287 22.498047 2.613281 21.00443 1.804245 19.354588 1.181732 17.549805 .746094 15.807326 .24826 14.064743 0 12.322266 0 8.214994 .000015 5.134766 1.182159 3.081055 3.546875 1.027405 5.973923 .00007 8.992157 0 12.601562 0 16.148804 .902347 18.980744 2.707031 21.09668 4.511764 23.21257 6.721233 24.799439 9.334961 25.857422 11.948728 26.915375 14.687114 27.599953 17.549805 27.911133 20.474799 28.222306 23.026892 28.37793 25.205079 28.37793H29.405274V29.498047C29.405274 31.862938 29.06348 33.668405 28.378907 34.913087 27.756567 36.157709 26.82276 37.215669 25.578125 38.086915 24.520174 38.771455 23.368666 39.238374 22.124024 39.487306 20.941605 39.79844 19.354645 39.9541 17.363282 39.9541 14.749456 39.9541 12.446564 39.61133 10.455078 38.926759 8.463791 38.242235 6.534812 37.339807 4.667969 36.219728L3.173828 41.820314C7.343501 44.247438 12.322596 45.461915 18.110352 45.461915ZM67.59082 45.461915C70.57786 45.461885 73.502658 45.119089 76.365238 44.43457 79.22799 43.75 81.53089 42.847749 83.27344 41.72754L81.68652 36.219728C80.25516 37.277696 78.20142 38.21147 75.52539 39.020509 72.849338 39.891786 70.17313 40.32715 67.49707 40.32715 64.75888 40.32715 62.4253 39.86019 60.496095 38.926759 58.629076 37.993249 57.072805 36.74823 55.828126 35.192384 54.58358 33.636606 53.68116 31.831894 53.121095 29.77832 52.56105 27.78701 52.28129 25.702393 52.28125 23.524415 52.28125 21.09729 52.623044 18.762879 53.307619 16.52246 53.992185 14.28212 54.988058 12.321869 56.29492 10.641602 57.66395 8.961426 59.313146 7.623642 61.242189 6.62793 63.233636 5.632202 65.53662 5.133804 68.15039 5.133789 70.63975 5.133789 73.19184 5.66272 75.805667 6.720703 78.4816 7.778656 80.6911 9.117325 82.43359 10.735352L83.740238 4.666992C81.99769 3.546783 79.60122 2.488907 76.55176 1.493164 73.56462 .497498 70.35927 0 66.93652 0 63.327154 .000046 60.153215 .621597 57.41504 1.866211 54.739004 3.110886 52.49911 4.760757 50.694337 6.814453 48.951787 8.930405 47.613199 11.357407 46.679689 14.095703 45.808454 16.89618 45.373048 19.85225 45.373048 22.963868 45.373048 25.951096 45.777875 28.78292 46.586915 31.458985 47.458166 34.197076 48.795946 36.592874 50.600587 38.646486 52.40537 40.762437 54.708265 42.412286 57.50879 43.594728 60.30925 44.83931 63.670236 45.461915 67.59082 45.461915ZM161.21387 45.461915C166.69046 45.461915 170.92293 44.06127 173.91016 41.260744 176.89728 38.522455 178.39063 34.632654 178.39063 29.591797 178.39063 28.533822 178.32857 27.444428 178.2041 26.324219 178.07967 25.266724 177.86176 24.48906 177.55078 23.99121H146.09082V23.057618C146.09082 20.692734 146.40207 18.42038 147.02442 16.242188 147.64673 14.064194 148.58065 12.135269 149.8252 10.455078 151.06987 8.774765 152.62615 7.436172 154.49317 6.44043 156.42232 5.444839 158.69399 4.947266 161.30762 4.947266 162.80117 4.947281 164.264 5.102905 165.69532 5.414062 167.12654 5.787445 168.49596 6.222885 169.80274 6.720703 171.10953 7.280777 172.32323 7.871841 173.44336 8.494141 174.56352 9.116455 175.55942 9.739014 176.43067 10.361328L177.55078 5.040039C176.74179 4.542206 175.7458 3.982635 174.56348 3.360352 173.38108 2.800262 172.07392 2.271301 170.64258 1.773438 169.21126 1.275589 167.6243 .870728 165.88184 .55957 164.20153 .186172 162.42757 0 160.56055 0 157.0756 0 153.9953 .591095 151.31934 1.773438 148.64333 3.018097 146.40242 4.667023 144.59766 6.720703 142.79293 8.836594 141.42374 11.263763 140.49024 14.001953 139.55673 16.74025 139.08985 19.603592 139.08985 22.59082 139.08988 25.640152 139.55677 28.534272 140.49024 31.27246 141.48593 34.07274 142.91735 36.53067 144.78418 38.646486 146.6512 40.762437 148.95409 42.412286 151.69239 43.594728 154.49282 44.839326 157.6667 45.46189 161.21387 45.461915ZM234.96875 45.461915C240.44515 45.461885 244.67688 44.061136 247.66407 41.260744 250.65129 38.522447 252.14551 34.632745 252.14551 29.591797 252.14551 28.533822 252.08248 27.444428 251.95801 26.324219 251.83356 25.266571 251.61576 24.489045 251.30469 23.99121H219.8457V23.057618C219.8457 20.692734 220.15695 18.42038 220.7793 16.242188 221.40164 14.064163 222.33548 12.135284 223.58008 10.455078 224.82474 8.77478 226.38008 7.436172 228.24707 6.44043 230.17623 5.444733 232.44786 4.947311 235.06153 4.947266 236.55509 4.947266 238.01789 5.102921 239.44922 5.414062 240.88051 5.787445 242.2498 6.22287 243.55664 6.720703 244.86342 7.280746 246.07715 7.871872 247.19727 8.494141 248.31739 9.116425 249.31336 9.739044 250.18457 10.361328L251.30469 5.040039C250.49573 4.542236 249.49962 3.98259 248.31739 3.360352 247.13513 2.800354 245.82857 2.271225 244.39746 1.773438 242.96608 1.275558 241.3783 .870743 239.63574 .55957 237.95563 .186249 236.18219 .000015 234.31543 0 230.83034 0 227.7493 .590988 225.07324 1.773438 222.39739 3.018051 220.15724 4.66716 218.35254 6.720703 216.54784 8.836563 215.17862 11.263809 214.24512 14.001953 213.31162 16.74025 212.84473 19.603592 212.84473 22.59082 212.84476 25.640152 213.31165 28.534272 214.24512 31.27246 215.24085 34.07277 216.67218 36.530664 218.53907 38.646486 220.40608 40.762437 222.70897 42.412286 225.44727 43.594728 228.24767 44.839258 231.42163 45.461915 234.96875 45.461915ZM268.16407 15.682617C268.16407 13.753372 268.38175 12.13504 268.81739 10.828125 269.31526 9.521271 269.9378 8.463318 270.68458 7.654297 271.49363 6.907486 272.42738 6.347031 273.48536 5.973633 274.60554 5.662491 275.81913 5.506836 277.12599 5.506836 278.68183 5.506836 280.20658 5.725494 281.7002 6.161133 283.25593 6.658966 284.68733 7.374207 285.99415 8.307617 287.30104 9.241104 288.4525 10.392609 289.44825 11.761719 290.44395 13.130814 291.22215 14.717743 291.78224 16.52246V44.061525H298.3164V1.120117H293.18263L292.43556 9.148438H292.0625C291.25346 6.534607 289.448 4.355835 286.64747 2.613281 283.847 .870865 280.3619 0 276.19239 0 274.20097 .000015 272.3028 .24823 270.49806 .746094 268.7555 1.243973 267.23075 2.053619 265.92384 3.173828 264.617 4.356247 263.559 5.881119 262.75 7.748047 262.00328 9.677246 261.62989 12.042389 261.62989 14.842773V44.061525H268.16407V15.682617ZM355.5752 45.461915C357.69889 45.4619 359.96543 45.19893 362.375 44.674806L363.93653 44.314455C366.5109 43.694566 368.70213 42.80062 370.51075 41.63379L368.7373 36.033205C367.49269 37.091073 365.6258 38.055559 363.13673 38.926759 360.70964 39.79802 358.03334 40.233385 355.1084 40.2334 352.12117 40.2334 349.94239 39.67392 348.57325 38.55371 347.26646 37.49575 346.61329 36.032945 346.61329 34.166017 346.61329 33.543787 346.7069 32.890497 346.89356 32.206056 347.08027 31.521508 347.4221 30.86744 347.91993 30.245118 348.48005 29.685013 349.1961 29.124558 350.06739 28.564454 351.00086 28.06665 352.21458 27.662697 353.708 27.351563L360.33595 25.857422C362.9497 25.297318 365.035 24.520142 366.59083 23.524415 368.2088 22.590943 369.45298 21.563508 370.32423 20.44336 371.1955 19.32315 371.75596 18.171708 372.00489 16.989258 372.316 15.86911 372.47169 14.811111 372.47169 13.81543 372.47169 11.886261 372.0668 10.081619 371.2578 8.401367 370.51103 6.721085 369.39103 5.258331 367.89747 4.013672 366.4661 2.768997 364.69215 1.804688 362.57618 1.120117 360.4602 .373306 358.09529 0 355.48146 0 352.18315 .000015 349.13349 .465927 346.333 1.399414 343.53266 2.395096 341.29258 3.484634 339.6123 4.666992L341.292 10.735352C343.5324 8.681625 346.02247 7.187408 348.76075 6.253906 351.49876 5.320526 353.95677 4.853561 356.13478 4.853516 359.24623 4.853516 361.61143 5.600372 363.2295 7.09375 364.8475 8.649521 365.65718 10.268005 365.65724 11.948242 365.65724 12.508331 365.6257 13.130875 365.56349 13.81543 365.50126 14.562225 365.252 15.308868 364.8164 16.055665 364.3808 16.802414 363.72764 17.487076 362.85646 18.109375 361.98518 18.793946 360.74015 19.322892 359.12208 19.69629L350.16017 21.9375C348.10685 22.435318 346.42689 23.088562 345.12013 23.89746 343.81333 24.70642 342.78587 25.577332 342.03907 26.510743 341.29228 27.506485 340.7633 28.533822 340.45216 29.591797 340.141 30.711915 339.98539 31.832032 339.98536 32.95215 339.98536 36.74842 341.386 39.767389 344.18653 42.007814 347.04927 44.310274 350.8456 45.461915 355.5752 45.461915ZM196.83692 44.061525H206.91895V39.67383H196.83692V9.894531C196.83695 7.903183 197.11669 6.595947 197.67676 5.973633 198.29909 5.351334 199.23293 5.041031 200.47754 5.041016 201.90886 5.041016 203.18451 5.258728 204.30469 5.694336 205.4249 6.129974 206.42072 6.658905 207.29199 7.28125L208.59864 2.333008C207.54074 1.835236 206.14064 1.337616 204.39844 .839844 202.71813 .341965 200.8506 .092773 198.79688 .092773 196.80577 .092804 195.25 .37265 194.12989 .932617 193.00968 1.492722 192.16948 2.240326 191.60938 3.173828 191.04936 4.107224 190.67597 5.13385 190.48926 6.253906 190.36479 7.436325 190.30274 8.587814 190.30274 9.708008V39.67383H183.11426V43.12793L190.48926 44.061525 191.88965 57.03711H196.83692V44.061525ZM99.5166 36.033205C100.325679 38.646928 102.06816 40.8564 104.74414 42.661134 107.48241 44.528085 110.93685 45.461915 115.106449 45.461915 117.09776 45.461877 118.96461 45.18116 120.70703 44.621095 122.51181 44.123224 124.06809 43.283029 125.375 42.100587 126.68168 40.918245 127.70834 39.362535 128.45508 37.433595 129.2641 35.504404 129.66892 33.139276 129.66895 30.338868V1.120117H123.13379V29.498047C123.13379 33.29432 122.293598 35.97052 120.61328 37.526369 118.93305 39.144319 116.78647 39.954034 114.17285 39.9541 112.617008 39.9541 111.06073 39.704904 109.50488 39.20703 108.011287 38.70916 106.61061 37.962533 105.30371 36.966798 103.99687 36.03331 102.84628 34.85025 101.850589 33.418947 100.85484 32.049798 100.076709 30.46299 99.5166 28.658204V1.120117H92.981449V70.19922H99.5166V36.033205ZM329.58399 45.461915C330.76643 45.461915 332.01145 45.243257 333.31837 44.807619 334.6249 44.434274 335.55809 43.936616 336.11817 43.314455L334.1582 37.15332C333.16249 37.7134 332.16664 38.148805 331.1709 38.45996 330.17524 38.83333 329.2108 39.020479 328.27735 39.020509 327.03266 39.020509 325.8497 38.677736 324.7295 37.993165 323.6094 37.30861 322.58283 36.37471 321.6494 35.192384 320.71598 34.009988 319.87568 32.640726 319.1289 31.08496 318.44444 29.529305 317.91539 27.911538 317.542 26.231446V1.120117H311.00685V44.061525H316.1416L316.88868 34.632814H317.26173C317.69737 36.06417 318.2578 37.433343 318.94239 38.740236 319.68916 40.04706 320.55998 41.198648 321.55567 42.194337 322.61366 43.19008 323.7966 43.968217 325.10353 44.52832 326.4103 45.150529 327.90388 45.461908 329.58399 45.461915ZM28.56543 23.617188C26.013838 23.617188 23.461749 23.52362 20.910157 23.336915 18.358773 23.150193 16.024989 22.68425 13.90918 21.9375 11.855469 21.19069 10.175074 20.101288 8.868164 18.669922 7.561296 17.300827 6.908248 15.402588 6.908203 12.975586 6.908203 10.548462 7.561252 8.680939 8.868164 7.374023 10.237213 6.129456 12.042035 5.506927 14.282227 5.506836 16.833819 5.506836 19.541537 6.316483 22.404297 7.93457 25.26692 9.552612 27.600539 11.886246 29.405274 14.935547V23.617188H28.56543ZM160.9336 40.2334C156.82659 40.23333 153.62189 39.14467 151.31934 36.966798 149.07897 34.8509 147.55417 32.174539 146.74512 28.938477H172.22949C172.29169 29.24952 172.32323 29.529465 172.32324 29.77832V30.61914C172.32318 32.17479 172.01192 33.544244 171.38965 34.726564 170.76737 35.971055 169.92696 36.997674 168.86914 37.80664 167.81127 38.6156 166.59749 39.206666 165.22852 39.58008 163.85938 40.015718 162.4272 40.2334 160.9336 40.2334ZM234.68848 40.2334C230.5811 40.23339 227.37589 39.144937 225.07324 36.966798 222.83284 34.85087 221.30808 32.1746 220.49903 28.938477H245.98438C246.04657 29.249489 246.07714 29.52948 246.07715 29.77832V30.61914C246.07709 32.17479 245.76583 33.544244 245.14356 34.726564 244.52124 35.971025 243.6809 36.997705 242.62305 37.80664 241.56511 38.61561 240.35149 39.206697 238.98242 39.58008 237.61331 40.015687 236.18204 40.2334 234.68848 40.2334ZM20.350586 146.79883C24.76905 146.79882 28.783104 146.17723 32.39258 144.93262 36.064325 143.68796 39.17597 141.97599 41.72754 139.79785 45.02594 136.81063 47.4224 133.17012 48.916017 128.87598 50.40963 124.58183 51.15625 119.913997 51.15625 114.87305 51.156229 110.641269 50.565217 106.62723 49.382814 102.831058 48.200368 99.097019 46.364358 95.79831 43.875 92.93555 41.447896 90.072849 38.3668 87.801387 34.632814 86.12109 30.89885 84.44088 26.479979 83.600589 21.376954 83.600589 16.958603 83.60059 12.975878 83.72569 9.428711 83.97461 5.943624 84.16131 2.800519 84.40954 0 84.7207V146.33301H.466797C3.453881 146.45748 6.689899 146.55008 10.174805 146.6123 13.659904 146.73677 17.052187 146.79883 20.350586 146.79883ZM67.421878 99.28418C67.421878 97.35506 67.63962 95.73656 68.075199 94.42969 68.57303 93.12288 69.195659 92.06488 69.94238 91.25586 70.75143 90.50905 71.68519 89.9486 72.743167 89.575199 73.86331 89.26407 75.076969 89.1084 76.38379 89.1084 77.939579 89.10841 79.46445 89.326099 80.95801 89.76172 82.5138 90.25959 83.945079 90.97569 85.25195 91.90918 86.55882 92.842678 87.710338 93.99417 88.706058 95.36328 89.701709 96.73236 90.47997 98.31936 91.04004 100.12402V127.66211H97.57422V84.7207H92.44043L91.69336 92.74902H91.319339C90.51026 90.1353 88.7057 87.957347 85.90527 86.21484 83.10477 84.472309 79.61983 83.6006 75.450199 83.600589 73.458759 83.600589 71.56061 83.84981 69.75586 84.34766 68.013408 84.845508 66.48851 85.6543 65.18164 86.774417 63.874795 87.956798 62.816839 89.48174 62.007814 91.34863 61.26102 93.27785 60.88771 95.642917 60.887697 98.44336V127.66211H67.421878V99.28418ZM150.69629 129.0625C153.68347 129.0625 156.60897 128.72069 159.47168 128.03614 162.33444 127.35156 164.63733 126.44833 166.37989 125.328128L164.79297 119.82129C163.36165 120.87921 161.30771 121.81208 158.63184 122.62109 155.95581 123.492359 153.27954 123.928699 150.60352 123.92871 147.86545 123.92871 145.53171 123.46168 143.60254 122.52832 141.73552 121.59481 140.17925 120.34979 138.93457 118.793949 137.68996 117.23817 136.78765 115.43349 136.22754 113.37988 135.66744 111.3884 135.3877 109.30319 135.3877 107.125 135.38771 104.698 135.72954 102.36435 136.41407 100.12402 137.0986 97.88371 138.09455 95.92343 139.40137 94.243167 140.77048 92.5629 142.41945 91.22425 144.34864 90.228519 146.34012 89.23277 148.64302 88.73535 151.25684 88.73535 153.74619 88.73535 156.29828 89.26429 158.91211 90.322269 161.58777 91.38014 163.79668 92.718097 165.53907 94.33594L166.84668 88.268558C165.10413 87.148349 162.70767 86.09047 159.6582 85.09473 156.671 84.09901 153.4658 83.600589 150.04297 83.600589 146.43355 83.600627 143.25969 84.22314 140.52149 85.46777 137.84545 86.71245 135.60459 88.36133 133.7998 90.41504 132.05735 92.53088 130.71964 94.95816 129.78614 97.69629 128.91486 100.49681 128.47949 103.453739 128.47949 106.56543 128.47953 109.55234 128.88347 112.38377 129.69239 115.05957 130.56366 117.79787 131.90225 120.19433 133.70703 122.24805 135.5118 124.36395 137.81476 126.012889 140.61524 127.19531 143.4156 128.43988 146.77585 129.06246 150.69629 129.0625ZM194.30664 129.0625C198.1027 129.0625 201.3702 128.40932 204.1084 127.10254 206.8467 125.857868 209.08753 124.145969 210.83008 121.96777 212.63481 119.851848 213.94196 117.39325 214.75098 114.59277 215.62215 111.85462 216.05762 108.96042 216.05762 105.91113 216.05757 102.86184 215.62221 99.96764 214.75098 97.22949 213.94199 94.55379 212.66609 92.189258 210.92383 90.13574 209.18128 88.14426 206.94045 86.556468 204.20215 85.37402 201.5262 84.19165 198.35227 83.60062 194.68067 83.600589 190.8844 83.600589 187.58568 84.22309 184.78516 85.46777 182.04698 86.7124 179.77545 88.36144 177.9707 90.41504 176.16599 92.53092 174.82733 94.958118 173.95606 97.69629 173.08483 100.434459 172.64946 103.32863 172.64942 106.37793 172.64942 109.42721 173.08489 112.32143 173.95606 115.05957 174.82732 117.79782 176.13445 120.19435 177.87696 122.24805 179.68164 124.363887 181.95331 126.01288 184.6914 127.19531 187.42963 128.43996 190.63497 129.06247 194.30664 129.0625ZM272.5371 129.0625C278.0137 129.0625 282.24617 127.662837 285.2334 124.862308 288.22053 122.124088 289.7138 118.23411 289.71388 113.19336 289.71388 112.13542 289.6518 111.04595 289.52735 109.92578 289.4029 108.867877 289.18516 108.089679 288.87403 107.5918H257.41407V106.6582C257.4141 104.293399 257.72535 102.02187 258.34767 99.84375 258.97 97.66556 259.90376 95.73598 261.14845 94.055667 262.393 92.375598 263.9487 91.03766 265.81544 90.04199 267.7447 89.04625 270.01704 88.54883 272.63087 88.54883 275.61799 88.54887 278.4185 89.077808 281.03224 90.13574 283.70814 91.19367 285.91767 92.34425 287.66017 93.58887L288.87403 88.6416C288.065 88.143749 287.06913 87.58325 285.88673 86.96094 284.70429 86.40084 283.3972 85.87189 281.96583 85.37402 280.53456 84.87619 278.94749 84.47229 277.20509 84.16113 275.52479 83.787738 273.7508 83.60059 271.8838 83.600589 268.39869 83.600589 265.31767 84.19158 262.6416 85.37402 259.9656 86.61869 257.72566 88.268589 255.9209 90.322269 254.11614 92.4382 252.74698 94.86525 251.81348 97.603519 250.88 100.34171 250.41312 103.20429 250.41309 106.19141 250.41309 109.240818 250.88 112.134799 251.81348 114.87305 252.80922 117.67358 254.2404 120.132099 256.10743 122.24805 257.97444 124.36399 260.27735 126.01287 263.01564 127.19531 265.8161 128.43996 268.98985 129.06249 272.5371 129.0625ZM359.70314 84.7207H354.56837L353.8213 92.37598H353.44825C351.95469 90.07341 349.77665 88.01958 346.91407 86.21484 344.0514 84.47234 340.62834 83.60064 336.6455 83.600589 333.4716 83.600589 330.7018 84.22309 328.3369 85.46777 325.97215 86.712398 324.01188 88.361469 322.45606 90.41504 320.90025 92.46872 319.71726 94.83376 318.9082 97.509769 318.1614 100.24806 317.7881 103.111408 317.7881 106.09863 317.78813 109.1479 318.193 112.07268 319.00196 114.87305 319.87324 117.67357 321.11827 120.10058 322.73634 122.1543 324.4166 124.27019 326.50099 125.950649 328.99024 127.19531 331.47956 128.43997 334.37355 129.06249 337.67189 129.0625 341.84147 129.0625 345.2644 128.16019 347.94044 126.35547 350.6165 124.55069 352.35893 122.309848 353.16798 119.63379V153.80078H359.70314V84.7207ZM391.64747 129.0625C397.1237 129.06244 401.35563 127.66261 404.34278 124.862308 407.32994 122.124088 408.82316 118.234119 408.82325 113.19336 408.82325 112.13541 408.76118 111.04597 408.63673 109.92578 408.51225 108.867809 408.29457 108.08967 407.9834 107.5918H376.5244V106.6582C376.52445 104.29338 376.8357 102.02188 377.458 99.84375 378.08036 97.6656 379.01316 95.735958 380.2578 94.055667 381.50248 92.37537 383.05879 91.03773 384.92579 90.04199 386.85499 89.04627 389.1265 88.547878 391.74024 88.54785 393.23384 88.54785 394.69657 88.70349 396.12794 89.01465 397.5593 89.388057 398.92845 89.824398 400.23536 90.322269 401.5422 90.882358 402.7558 91.47339 403.87599 92.0957 404.9962 92.71804 405.992 93.340549 406.86329 93.96289L407.9834 88.6416C407.17439 88.143749 406.1785 87.58326 404.9961 86.96094 403.81373 86.40088 402.50648 85.87186 401.0752 85.37402 399.64393 84.87621 398.05686 84.472278 396.31446 84.16113 394.63417 83.78774 392.86015 83.600589 390.99317 83.600589 387.50834 83.60063 384.42787 84.19169 381.75196 85.37402 379.0759 86.618709 376.83506 88.26855 375.03028 90.322269 373.22563 92.43814 371.85633 94.86536 370.92286 97.603519 369.9894 100.34166 369.5225 103.204349 369.52247 106.19141 369.52247 109.24075 369.9894 112.13484 370.92286 114.87305 371.91859 117.67358 373.35078 120.132099 375.21778 122.24805 377.0847 124.36379 379.38697 126.012928 382.125 127.19531 384.92555 128.43999 388.10014 129.0625 391.64747 129.0625ZM431.84376 129.0625C434.2708 129.0625 436.88508 128.72068 439.68556 128.03614 442.48603 127.4138 444.85105 126.48 446.78028 125.23535L445.00685 119.63379C443.76216 120.69177 441.89463 121.65704 439.40528 122.52832 436.97825 123.399509 434.30183 123.83496 431.37696 123.83496 428.38996 123.8349 426.21186 123.27445 424.84278 122.1543 423.5361 121.09641 422.8829 119.63429 422.8828 117.76758 422.8828 117.14524 422.9754 116.49121 423.1621 115.80664 423.3488 115.12213 423.69166 114.46897 424.18946 113.84668 424.74958 113.286579 425.46565 112.72612 426.3369 112.166019 427.27037 111.66824 428.48414 111.263278 429.97755 110.95215L436.60548 109.458988C439.2191 108.898899 441.30363 108.12067 442.85939 107.125 444.4774 106.191539 445.72248 105.16507 446.59376 104.04492 447.46495 102.92481 448.02449 101.77315 448.27345 100.59082 448.58457 99.47073 448.7402 98.41264 448.74024 97.41699 448.74024 95.48774 448.3364 93.68227 447.52735 92.00195 446.78056 90.321727 445.65959 88.85986 444.16603 87.615238 442.73469 86.370609 440.96159 85.405269 438.8457 84.7207 436.7298 83.973918 434.36476 83.6006 431.75099 83.600589 428.45265 83.600589 425.40306 84.06749 422.60255 85.00098 419.802 85.99672 417.5612 87.08611 415.88087 88.268558L417.56153 94.33594C419.80186 92.28233 422.29118 90.78897 425.0293 89.85547 427.76759 88.92196 430.2261 88.45508 432.4043 88.45508 435.516 88.455089 437.88096 89.2017 439.49903 90.69531 441.1171 92.25116 441.92579 93.86949 441.92579 95.549808 441.92579 96.10986 441.89524 96.73248 441.833 97.41699 441.77073 98.1637 441.5215 98.91052 441.08595 99.65723 440.65034 100.40393 439.9971 101.08867 439.12599 101.71094 438.25474 102.39549 437.00965 102.92445 435.3916 103.29785L426.4297 105.538089C424.376 106.03595 422.69557 106.68999 421.38868 107.49902 420.08204 108.30794 419.05534 109.178958 418.3086 110.112308 417.5618 111.10805 417.03285 112.13538 416.72169 113.19336 416.41056 114.31348 416.25489 115.43359 416.25489 116.55371 416.2549 120.34979 417.6548 123.36803 420.45509 125.6084 423.31776 127.91099 427.11418 129.06244 431.84376 129.0625ZM234.40528 127.66211H244.4873V123.274417H234.40528V93.49609C234.40528 91.50461 234.68599 90.19754 235.2461 89.575199 235.86838 88.95304 236.80153 88.64166 238.0459 88.6416 239.47728 88.6416 240.75382 88.85928 241.87403 89.29492 242.99413 89.73054 243.99013 90.259548 244.86133 90.881839L246.16797 85.93457C245.10999 85.4367 243.70935 84.9383 241.9668 84.44043 240.28664 83.94264 238.4197 83.69436 236.36621 83.694339 234.37473 83.694339 232.81845 83.974079 231.69824 84.53418 230.57813 85.09425 229.73783 85.84098 229.17774 86.774417 228.61763 87.707927 228.24433 88.73526 228.05762 89.85547 227.93317 91.03784 227.8711 92.18942 227.8711 93.30957V123.274417H220.68262V126.728519L228.05762 127.66211 229.45801 140.6377H234.40528V127.66211ZM194.02735 123.83496C191.47576 123.83496 189.29697 123.36808 187.49219 122.43457 185.68749 121.50107 184.19412 120.256 183.01172 118.700199 181.8294 117.14447 180.95755 115.3091 180.39746 113.19336 179.83736 111.13964 179.55762 108.96086 179.55762 106.6582 179.55764 104.293399 179.83737 102.02187 180.39746 99.84375 181.0198 97.66556 181.92205 95.73598 183.10449 94.055667 184.34917 92.37538 185.90547 91.03772 187.77246 90.04199 189.70169 89.04627 191.97315 88.54786 194.58692 88.54785 197.07625 88.54785 199.22354 89.014759 201.02832 89.94824 202.89534 90.88175 204.42009 92.12677 205.60254 93.68262 206.8472 95.30069 207.74947 97.136737 208.30957 99.19043 208.86966 101.30636 209.14942 103.51573 209.14942 105.81836 209.1494 108.18321 208.83815 110.45465 208.21582 112.63281 207.65572 114.81098 206.75347 116.709079 205.50879 118.32715 204.26412 120.00745 202.67728 121.34606 200.74805 122.3418 198.88118 123.33739 196.64086 123.83491 194.02735 123.83496ZM338.60548 123.55469C336.42738 123.55468 334.4671 123.119258 332.7246 122.24805 331.04438 121.376819 329.61308 120.16315 328.43067 118.60742 327.24824 117.051578 326.31446 115.18405 325.62989 113.00586 325.00764 110.82779 324.6963 108.43201 324.6963 105.81836 324.6963 103.82687 324.91398 101.835239 325.3496 99.84375 325.78526 97.852298 326.50135 96.04775 327.49708 94.42969 328.49284 92.87384 329.7999 91.597309 331.41798 90.60156 333.03587 89.60609 335.02714 89.10845 337.3916 89.1084 340.37879 89.1084 343.3043 89.91713 346.167 91.53516 349.09199 93.153247 351.4254 95.48765 353.16798 98.53711V112.259769C352.04774 115.80692 350.1496 118.57597 347.47364 120.56738 344.8598 122.55886 341.90388 123.55469 338.60548 123.55469ZM20.910157 140.6377C18.42104 140.6377 15.963029 140.60715 13.536133 140.54492 11.171244 140.54492 8.992462 140.48287 7.000977 140.3584V90.322269C10.921715 89.94886 15.621071 89.76172 21.097657 89.76172 28.503317 89.76179 34.072668 91.94057 37.80664 96.296878 41.54067 100.65325 43.408205 107.09407 43.408205 115.62012 43.408205 119.35401 43.00332 122.74555 42.194337 125.79492 41.447534 128.90662 40.17197 131.55228 38.367189 133.73047 36.624654 135.90856 34.32166 137.58907 31.458985 138.77149 28.596289 140.01605 25.079657 140.6377 20.910157 140.6377ZM272.25685 123.83496C268.14955 123.83491 264.9442 122.74552 262.6416 120.56738 260.40138 118.451488 258.87638 115.775058 258.06739 112.53906H283.55274C283.61497 112.850238 283.6455 113.13095 283.6455 113.37988V114.21973C283.6455 115.775447 283.3351 117.144779 282.7129 118.32715 282.09059 119.57179 281.2503 120.599178 280.19239 121.4082 279.13453 122.21716 277.92076 122.80823 276.55177 123.18164 275.18263 123.61728 273.75047 123.83496 272.25685 123.83496ZM391.3672 123.83496C387.25975 123.83496 384.0546 122.745578 381.75196 120.56738 379.5116 118.45145 377.98677 115.77518 377.17774 112.53906H402.6621C402.72434 112.850238 402.75587 113.13095 402.75587 113.37988V114.21973C402.75587 115.77554 402.44459 117.14472 401.82228 118.32715 401.19993 119.57182 400.35975 120.59917 399.30177 121.4082 398.24385 122.217159 397.03019 122.80826 395.66114 123.18164 394.29206 123.61725 392.86073 123.834949 391.3672 123.83496ZM205.69532 138.30469 205.97559 137.65137 205.50879 135.87696 204.7627 135.59766 195.05371 141.29199 185.43848 135.59766 184.6914 135.87696 184.13184 137.65137 184.41211 138.30469 194.77344 147.5459H195.42676L205.69532 138.30469ZM281.125 148.19922C282.18299 148.137 282.9926 147.79518 283.55274 147.17285 284.11277 146.5506 284.39253 145.80376 284.39259 144.93262 284.39259 144.68369 284.36204 144.40297 284.2998 144.0918 284.29978 143.78073 284.23674 143.46927 284.1123 143.1582L265.25587 135.9707 264.60255 136.25098 264.042 138.11719 264.32228 138.77149 281.125 148.19922Z" fill="#00286e"/>
<path transform="matrix(1,0,0,-1,828.1854,339.18617)" d="M12.231445 9.027954C14.949551 9.027954 17.473525 9.125046 19.803328 9.319199 22.327282 9.513351 24.75413 9.998718 27.083933 10.77533 29.413737 11.357773 31.64649 12.425583 33.782144 13.97879 36.11195 15.531998 38.63589 17.667649 41.353998 20.385758 45.04285 24.268769 48.246358 28.442994 50.964464 32.908449 53.682565 37.17975 55.915258 41.54814 57.66261 46.013597L66.981868 69.602878 46.88729 122.31469C46.110689 124.06204 44.751626 127.26552 42.810125 131.92513 41.062768 136.58473 39.024206 141.72972 36.6944 147.36008 34.364599 153.1846 31.937718 159.10619 29.413762 165.12485 27.08396 171.14351 25.045393 176.48264 23.298039 181.14225 21.356537 185.80185 19.609158 189.49069 18.055956 192.2088 16.114453 195.31522 13.881729 197.7421 11.357776 199.48944 9.027971 201.2368 5.824497 202.30463 1.74734 202.69293L0 204.14905V208.22621L1.164883 209.39112C4.465439 209.0028 7.960164 208.61452 11.649019 208.22621 15.337876 207.8379 18.735507 207.64376 21.841912 207.64376H33.19972C36.306127 207.64376 39.99494 207.8379 44.26625 208.22621 48.73171 208.61452 52.905965 209.0028 56.78897 209.39112L57.953886 208.22621V204.7315L56.78897 203.5666C52.517663 203.1783 48.925848 202.0134 46.013589 200.0719 43.295488 198.32454 41.93648 195.7035 41.93648 192.2088 41.93648 189.879 42.81011 185.70478 44.55746 179.68611 46.498964 173.8616 48.634656 167.55173 50.964464 160.75646 53.294263 154.15535 55.526956 147.94254 57.66261 142.11801 59.79826 136.29352 61.254388 132.50757 62.03099 130.76023L76.59233 92.90091 90.2799 126.39184C91.638957 129.6924 93.4834 134.15787 95.8132 139.78823 98.143 145.41858 100.47282 151.43724 102.80262 157.8442 105.13242 164.25116 107.07387 170.46398 108.62707 176.48264 110.37442 182.69544 111.248119 187.9375 111.248119 192.2088 111.248119 196.48012 109.69492 199.2953 106.58852 200.65435 103.48211 202.20755 99.98741 203.1783 96.10441 203.5666L94.9395 204.7315V208.22621L96.10441 209.39112C103.67628 208.22621 110.762729 207.64376 117.36384 207.64376H129.30413C132.60469 207.64376 135.71106 207.8379 138.62332 208.22621 141.72972 208.61452 145.12735 209.0028 148.81621 209.39112L149.98113 208.22621V204.14905L148.525 202.69293C145.0303 202.30463 142.31217 201.33388 140.37067 199.78069 138.6233 198.22748 136.68181 195.7035 134.54616 192.2088 132.7988 189.1024 130.76024 185.21939 128.43044 180.5598 126.29478 175.90019 124.06208 170.85228 121.73228 165.41608 119.59663 159.97986 117.36387 154.44657 115.034069 148.81621 112.898418 143.18585 110.85985 137.94379 108.91834 133.09003 107.17099 128.23627 105.617809 123.96497 104.25875 120.276119 103.09385 116.78141 102.22016 114.35453 101.63771 112.99548L73.09759 41.936464C68.049678 29.31668 61.157354 19.997452 52.42059 13.97879 43.877977 7.765976 34.55874 3.397598 24.462924 .873642 22.52142 .485336 20.774073 .291183 19.22087 .291183 17.667668 .097031 15.920321-.000031 13.978817-.000031L11.649019 .582428 11.066563 7.571854 12.231445 9.027954Z" fill="#00286e"/>
<path transform="matrix(1,0,0,-1,978.0711,271.3307)" d="M64.06961 80.378299C72.22392 78.630939 78.72793 76.204059 83.58169 73.09765 88.6296 70.185398 92.5126 66.98192 95.23071 63.487215 97.94882 59.992509 99.6962 56.40072 100.47279 52.71186 101.44354 49.217157 101.928928 45.916604 101.928928 42.810197 101.928928 36.59739 100.66698 30.869957 98.14303 25.6279 95.61907 20.385842 91.93019 15.823303 87.07643 11.940292 82.41683 8.251434 76.68938 5.339188 69.89412 3.203537 63.098859 1.067886 55.42991 .000031 46.88729 .000031 37.373926 .000031 28.443036 1.067886 20.094573 3.203537 11.940259 5.53334 5.436185 7.960205 .582426 10.484161L0 13.105194 4.368382 43.101427H11.066594L11.940232 41.936517C11.940232 32.617296 14.852488 25.239594 20.676999 19.80339 26.501507 14.561325 34.947084 11.940292 46.013654 11.940292 52.614767 11.940292 58.14802 12.716888 62.61348 14.270088 67.07894 15.823296 70.57363 17.861878 73.09759 20.385827 75.81569 22.909783 77.757198 25.6279 78.9221 28.540154 80.087 31.452408 80.669498 34.267587 80.669498 36.985689 80.669498 38.73304 80.57238 40.674547 80.37822 42.810197 80.184078 45.14 79.40751 47.372728 78.048458 49.508378 76.68941 51.83818 74.65077 53.97384 71.93267 55.915346 69.21457 58.050996 65.331569 59.79834 60.28365 61.157403L32.326017 68.14681C25.919054 69.70002 20.676985 71.738597 16.599829 74.26255 12.52267 76.78651 9.319228 79.50461 6.989424 82.41687 4.659621 85.52327 3.009305 88.726749 2.038553 92.0273 1.067801 95.52201 .582426 99.016719 .582426 102.51143 .582426 108.91838 1.844427 114.548748 4.368382 119.402507 6.892336 124.45041 10.289968 128.52758 14.561275 131.63397 19.026732 134.93454 24.17174 137.36142 29.99625 138.91461 35.82076 140.66197 42.130647 141.53565 48.925909 141.53565 58.050973 141.53565 66.39942 140.37075 73.97129 138.04094 81.7373 135.71114 87.755939 133.38134 92.027248 131.05153L92.90095 128.4305 89.69748 106.006137H83.58169L82.41684 106.87981C82.41684 111.34526 81.15483 115.03412 78.63088 117.94638 76.30108 121.05278 73.388828 123.47966 69.89412 125.22701 66.399417 127.16852 62.710535 128.52758 58.827524 129.30417 54.94452 130.08078 51.546888 130.46907 48.634634 130.46907 38.927118 130.46907 31.937729 128.04219 27.666422 123.18844 23.395113 118.33468 21.259486 112.89847 21.259486 106.87981 21.259486 102.41435 22.715613 98.143039 25.627869 94.06588 28.734274 90.18288 34.655847 87.17355 43.39261 85.037899L64.06961 80.378299Z" fill="#00286e"/>
<path transform="matrix(1,0,0,-1,771.53298,272.49415)" d="M.582426 212.88584 1.747341 214.05072H6.989394C10.28995 214.05072 14.464176 214.05072 19.512085 214.05072 24.559994 214.24489 28.928378 214.63318 32.617235 215.21562L43.10137 216.67176 44.848714 214.05072C44.460416 213.27413 44.169195 211.81801 43.97504 209.68235 43.78089 207.74085 43.586736 205.6052 43.392587 203.27538 43.198434 200.94559 43.004278 198.71286 42.810129 196.5772 42.810129 194.44155 42.810129 192.79128 42.810129 191.62638 42.615976 188.51996 42.42185 185.6077 42.2277 182.88959 42.2277 180.1715 42.130609 176.96802 41.936456 173.27916 41.936456 169.5903 41.936456 165.12485 41.936456 159.88278 41.936456 154.64072 41.936456 147.94254 41.936456 139.78823V76.301059C41.936456 68.14674 41.936456 61.448564 41.936456 56.206514 42.130609 50.964448 42.2277 46.498994 42.2277 42.81015 42.42185 39.121294 42.518915 35.9178 42.518915 33.19969 42.713068 30.481583 42.90722 27.375184 43.10137 23.880478 43.489675 19.803315 43.877985 16.696915 44.266286 14.561264 44.848737 12.619766 45.91655 10.969482 47.469755 9.610428 49.022958 8.251373 51.15862 7.377701 53.87672 6.989395 56.78898 6.601105 59.701234 6.406937 62.613489 6.406937L64.06962 4.950821 64.65204 1.164886 64.06962-.000015C62.710565-.000015 60.671968 .097076 57.95386 .291214 55.235757 .485367 52.3235 .679504 49.217096 .873657 46.110689 .873657 43.198434 .970734 40.480329 1.164886 37.762228 1.164886 35.72366 1.164886 34.364606 1.164886H30.287436C28.928383 1.164886 26.792723 1.164886 23.880469 1.164886 21.162364 .970734 18.250109 .873657 15.143703 .873657 12.231447 .679504 9.319192 .485367 6.406937 .291214 3.688831 .097076 1.650266-.000015 .291213-.000015L0 1.164886 .291213 5.24205 1.456128 6.406937C4.562533 6.406937 7.571851 6.504028 10.484106 6.698166 13.590512 7.086472 15.920328 8.05722 17.473532 9.610428 19.026736 10.969482 19.997487 12.716843 20.385787 14.852493 20.968237 16.988144 21.453614 19.997467 21.841916 23.880478 22.036065 26.404435 22.133128 28.92839 22.133128 31.452332 22.327279 33.976289 22.42434 36.88855 22.42434 40.189104 22.61849 43.683809 22.715584 47.663896 22.715584 52.12935 22.715584 56.788957 22.715584 62.516389 22.715584 69.311649V139.20578C22.715584 147.16596 22.715584 153.86414 22.715584 159.30034 22.715584 164.9307 22.61849 169.78446 22.42434 173.86162 22.42434 177.93877 22.327279 181.53055 22.133128 184.63697 22.133128 187.74337 22.036065 190.84976 21.841916 193.95618 21.647765 196.09183 21.065295 197.93627 20.094542 199.48947 19.317942 201.04267 18.638409 202.20755 18.055958 202.98416 16.114455 205.11981 13.687574 206.47887 10.775319 207.06131 7.863064 207.64377 4.853746 207.935 1.747341 207.935L.582426 209.0999V212.88584Z" fill="#00286e"/>
<path transform="matrix(1,0,0,-1,622.42337,271.3307)" d="M71.641468 141.53565C83.09634 141.53565 93.28926 139.49707 102.22018 135.4199 111.15109 131.5369 118.62586 126.19777 124.644519 119.402507 130.85733 112.80139 135.51696 105.132457 138.62337 96.39569 141.92394 87.65892 143.5742 78.630939 143.5742 69.31172 143.5742 60.380807 142.11806 51.74112 139.2058 43.392656 136.29355 35.04419 131.8281 27.666481 125.80943 21.259514 119.79077 14.852554 112.31598 9.70755 103.38506 5.824554 94.45415 1.941544 84.06709 .000031 72.22392 .000031 59.99245 .000031 49.31418 2.038635 40.189119 6.115799 31.064049 10.192947 23.492194 15.532074 17.473532 22.133187 11.649021 28.734299 7.280638 36.20909 4.368383 44.557558 1.456128 53.100168 0 61.836938 0 70.767848 0 80.28122 1.650284 89.309207 4.95084 97.85182 8.251396 106.39444 12.910997 113.869228 18.929659 120.276187 25.14247 126.8773 32.617265 132.02228 41.35403 135.71114 50.284948 139.59415 60.380746 141.53565 71.641468 141.53565ZM71.93271 11.357834C80.08702 11.357834 87.2706 13.008118 93.48341 16.308678 99.69622 19.60923 104.8412 23.977616 108.91836 29.413826 112.995517 34.850038 116.00484 40.965776 117.946338 47.76104 120.08199 54.75045 121.14983 61.934007 121.14983 69.31172 121.14983 76.30113 119.984928 83.38762 117.65512 90.571178 115.51947 97.75474 112.31596 104.161708 108.044658 109.79207 103.77335 115.61658 98.53131 120.276187 92.3185 123.7709 86.10568 127.45975 78.92211 129.30417 70.7678 129.30417 62.22518 129.30417 54.84748 127.55682 48.63467 124.06212 42.61601 120.761569 37.568094 116.39317 33.490938 110.95696 29.607926 105.52075 26.695672 99.30794 24.75417 92.31853 22.812666 85.32912 21.841916 78.33971 21.841916 71.350299 21.841916 64.16673 22.90976 56.98317 25.045414 49.799608 27.375218 42.810197 30.675755 36.40323 34.947065 30.57872 39.21837 24.948365 44.46044 20.288765 50.673254 16.599907 56.886068 13.105194 63.972547 11.357834 71.93271 11.357834Z" fill="#00286e"/>
<path transform="matrix(1,0,0,-1,475.7002,271.088)" d="M67.273097 .000015 64.36084 1.456146 46.887308 48.05224C46.304857 49.79959 45.042886 53.003068 43.101385 57.662675 41.35403 62.32228 39.31545 67.46727 36.985647 73.097629 34.65584 78.72799 32.228963 84.5525 29.705006 90.57116 27.375203 96.78397 25.239542 102.220188 23.298039 106.87979 21.356537 111.5394 19.60919 115.22825 18.055987 117.94635 16.114483 121.05276 13.881745 123.47964 11.357791 125.22699 9.027987 126.97434 5.824513 128.04218 1.747356 128.43048L0 129.8866V133.96376L1.164899 135.12866C4.465455 134.74036 7.960164 134.35207 11.649019 133.96376 15.337876 133.57546 18.735507 133.3813 21.841912 133.3813H33.19972C36.306127 133.3813 39.994974 133.57546 44.26628 133.96376 48.73174 134.35207 52.905965 134.74036 56.78897 135.12866L57.953886 133.96376V130.46906L56.78897 129.30416C52.517663 128.91585 48.92589 127.750949 46.013639 125.80945 43.295534 124.062099 41.93648 121.44106 41.93648 117.94635 41.93648 115.61655 42.810155 111.44232 44.55751 105.42366 46.499013 99.59915 48.634656 93.28927 50.964464 86.494 53.294263 79.8929 55.527 73.680088 57.662656 67.85557 59.79831 62.225214 61.254438 58.439279 62.03104 56.497774L76.30109 18.638459 90.2799 52.129388C91.638957 55.429948 93.4834 59.895418 95.8132 65.52577 98.143 71.15613 100.4728 77.17479 102.802608 83.58174 105.13241 89.98871 107.07391 96.20152 108.62711 102.220188 110.37447 108.43299 111.248149 113.67505 111.248149 117.94635 111.248149 122.21767 109.69494 125.032848 106.58853 126.3919 103.482128 127.9451 99.98743 128.91585 96.10442 129.30416L94.939517 130.46906V133.96376L96.10442 135.12866C103.67629 133.96376 110.76277 133.3813 117.363887 133.3813H129.30411C132.60468 133.3813 135.80818 133.57546 138.91458 133.96376 142.21514 134.35207 145.70983 134.74036 149.39868 135.12866L150.5636 133.96376V129.8866L148.81623 128.43048C145.51567 128.04218 142.60343 127.07143 140.07947 125.51823 137.74967 123.96502 135.51694 121.44106 133.38129 117.94635 131.63393 114.83995 129.59537 110.95695 127.265567 106.29734 125.129909 101.63774 122.897159 96.58983 120.56735 91.15362 118.431697 85.71741 116.198978 80.18411 113.86917 74.55376 111.73351 68.9234 109.69495 63.681344 107.75345 58.827585 106.006099 53.973825 104.45289 49.702524 103.093837 46.013666 101.92893 42.51896 101.055248 40.09208 100.47279 38.733034L85.62031 1.456146 67.273097 .000015Z" fill="#00286e"/>
<path transform="matrix(1,0,0,-1,339.2611,272.38136)" d="M83.87295 192.20883C86.396907 192.20883 90.18282 192.20883 95.230739 192.20883 100.47279 192.40297 105.71485 192.59712 110.95692 192.79128 116.198978 192.98543 120.85858 193.08249 124.93574 193.08249 129.20705 193.27666 131.82808 193.37374 132.79883 193.37374L134.25496 190.46146 133.09006 158.7179H125.80941L124.64451 159.8828C124.25621 164.34825 123.67377 167.84296 122.89717 170.36692 122.31471 172.89087 120.37321 174.73529 117.072658 175.9002 113.96625 177.0651 109.209568 177.74463 102.802608 177.93877 96.395648 178.13292 87.367649 178.23 75.71863 178.23H47.760988L47.17853 166.87221C46.984384 163.7658 46.79023 161.14476 46.596078 159.00911 46.596078 156.87346 46.499006 154.25243 46.304857 151.14603 46.304857 148.03961 46.304857 144.2537 46.304857 139.78824 46.304857 135.51692 46.304857 125.03281 46.304857 108.33588 52.129365 108.53002 57.953874 108.6271 63.778387 108.6271 69.6029 108.6271 74.844959 108.724178 79.50456 108.91833 84.35832 109.11247 88.43548 109.50078 91.73603 110.08322 95.03659 110.859828 97.26932 111.92765 98.43422 113.2867 99.98742 114.839908 101.34647 116.39311 102.51137 117.94631 103.67628 119.49951 104.25873 121.73224 104.25873 124.6445L105.71485 126.10063 110.66569 126.683078 111.83059 126.10063C111.44229 121.63517 111.053989 117.75216 110.66569 114.45161 110.471538 111.15105 110.374469 107.36512 110.374469 103.09382 110.374469 98.434207 110.471538 94.06582 110.66569 89.988658 111.053989 86.10565 111.44229 81.83435 111.83059 77.174739L110.66569 76.592288 105.42363 77.174739 104.25873 78.048419C104.25873 81.15482 103.67628 83.97 102.51137 86.49396 101.34647 89.21206 99.98742 91.444789 98.43422 93.19214 97.26932 94.35705 95.03659 95.23072 91.73603 95.81317 88.43548 96.395618 84.45539 96.78392 79.795787 96.97807 75.13618 97.172229 69.89412 97.269298 64.06961 97.269298 58.2451 97.269298 52.323514 97.269298 46.304857 97.269298V69.020427C46.304857 62.031007 46.304857 56.30359 46.304857 51.838136 46.304857 47.56682 46.304857 43.683809 46.304857 40.189104 46.499006 36.88855 46.693159 33.782136 46.887308 30.869889 47.08146 28.15178 47.372686 24.948304 47.760988 21.259446 47.760988 17.570588 49.702489 15.726151 53.585496 15.726151H78.33965C89.98867 15.726151 99.11374 15.920303 105.71485 16.308609 112.51012 16.891053 117.655109 17.958893 121.14982 19.512085 124.64452 21.065293 127.0714 23.395096 128.43045 26.501496 129.98366 29.802063 131.43978 34.073366 132.79883 39.315416L133.96375 40.480318H141.53562L136.29354 3.49469 133.96375 .582428C132.993 .582428 130.76024 .679504 127.26554 .873657 123.77083 .873657 119.79076 .970718 115.325298 1.164871 111.05399 1.359024 106.68561 1.553177 102.22015 1.74733 97.94884 1.74733 94.55121 1.74733 92.02726 1.74733H33.199708C31.840655 1.74733 29.607926 1.650253 26.501519 1.4561 23.395115 1.261948 20.191637 1.06781 16.89108 .873657 13.590525 .679504 10.387044 .485352 7.280638 .291199 4.174232 .097046 1.941504-.000031 .582451-.000031L0 1.164871 .873677 6.406937 2.329804 7.571838C5.43621 7.571838 8.348463 7.668915 11.066567 7.863068 13.784673 8.251373 16.017403 9.125046 17.764754 10.4841 19.317957 11.843155 20.774085 13.5905 22.133137 15.726151 23.686339 17.861802 24.65709 21.64775 25.045392 27.083954 25.045392 28.443009 25.045392 29.996216 25.045392 31.743577 25.239542 33.685075 25.33662 36.014879 25.33662 38.732988 25.530772 41.45108 25.627844 44.751634 25.627844 48.634645 25.627844 52.517656 25.627844 57.3714 25.627844 63.195909V122.314708C25.627844 129.10996 25.627844 134.8374 25.627844 139.49701 25.627844 144.15662 25.627844 148.13669 25.627844 151.43724 25.627844 154.73781 25.530772 157.55298 25.33662 159.8828 25.33662 162.21259 25.239542 164.54239 25.045392 166.87221 24.65709 172.11426 23.686339 175.80312 22.133137 177.93877 20.774085 180.26859 19.317957 182.113 17.764754 183.47205 16.017403 184.83112 13.784673 185.60771 11.066567 185.80187 8.348463 186.19016 5.43621 186.38431 2.329804 186.38431L.873677 187.54921 0 192.79128 .582451 193.95618C1.941504 193.95618 4.174232 193.8591 7.280638 193.66495 10.387044 193.47081 13.687599 193.27666 17.182305 193.08249 20.87116 192.88835 24.365866 192.6942 27.666422 192.50005 31.161126 192.30591 33.976308 192.20883 36.11196 192.20883H83.87295Z" fill="#00286e"/>
<path transform="matrix(1,0,0,-1,.000488,282.0598)" d="M120.56885 267.01979C156.32588 277.63865 192.8574 287.16154 233.84619 278.969 243.62883 276.18598 258.0922 271.60688 263.34913 254.49636 266.28773 237.27402 256.91654 226.89954 250.15967 219.21706 219.38098 189.68305 182.67407 177.04569 145.82862 166.16626 123.2662 160.00247 100.166667 155.6767 76.5874 154.62134 74.18836 154.52719 71.78441 154.46681 69.37549 154.44556 68.32389 154.22077 67.275699 153.98287 66.23096 153.73268 50.667798 150.0086 31.647637 141.63736 30.743655 128.63405 30.674138 115.59215 49.005144 105.510868 64.23779 100.37819 80.319629 94.95625 97.519458 92.60434 114.58447 92.38405 141.30638 92.19292 171.22426 97.10266 188.75537 111.80202 192.8092 115.414569 194.36269 119.30545 193.81201 121.175067 194.50023 122.98796 193.24257 127.00746 189.47217 130.9778 179.32985 141.04268 164.17092 147.7974 147.77002 152.01686 150.32141 152.64943 152.89337 153.34189 155.47608 154.10767 162.9363 156.31972 170.04921 158.96268 176.7124 161.92993 186.08061 158.49839 195.32076 153.73418 204.32764 147.0608 210.85404 141.57202 218.36447 132.64904 218.44385 120.047138 217.42456 107.49629 209.27404 99.292179 202.36084 94.41823 173.18285 76.468509 143.15448 76.756549 114.05713 78.28737 95.84978 79.745838 77.786159 83.10446 60.439947 89.5862 60.05809 89.75258 59.67134 89.917728 59.28272 90.08522 53.50871 91.453708 47.68448 92.397159 41.874517 92.816669 29.283202 93.81781 13.294743 91.50618 10.479006 82.49049 7.833099 73.412 19.356345 60.92993 29.96338 53.35573 41.090108 45.295106 53.753168 39.35463 66.73096 35.15944 87.01511 28.66951 111.12036 25.72406 126.395999 33.04323 129.93894 34.860399 131.22064 37.308855 130.80127 38.011 131.5186 38.290803 131.8255 41.103639 129.97998 44.91432 126.1652 52.332017 119.63586 59.245836 111.76611 65.359638 115.88975 64.73102 120.15029 64.30339 124.51416 64.103778 130.16945 63.845109 135.6812 63.981996 140.97022 64.46901 143.46108 61.85356 145.885 59.01689 148.22608 55.92604 152.31243 49.788728 156.63144 40.314393 153.92725 29.46315 150.19452 18.991883 141.59598 14.290894 134.99658 12.10376 107.7786 5.102264 84.86678 13.151337 62.653814 21.65747 48.896657 27.401642 35.65961 34.58017 23.59424 44.058855 12.711605 53.640977-3.1427 65.16585 .544436 86.16237 7.317194 101.56561 20.807808 103.77687 33.053228 104.262958 26.215794 110.02785 21.077446 117.796298 20.164553 129.11745 22.430195 143.58188 31.27697 151.49834 41.53272 156.68579 41.27443 156.73514 41.01574 156.78395 40.757329 156.8352 29.470828 159.51935 13.754583 163.09337 8.616701 179.96704 5.627009 197.32672 16.828549 207.97739 25.19385 216.60279 34.26858 225.20349 44.36371 232.08399 54.747564 238.2483 75.561519 250.4661 97.76123 259.70823 120.56885 267.01979ZM227.56885 257.37525C197.01372 266.28404 159.0719 260.50669 125.1626 251.52565 103.11322 245.46474 81.52257 237.23023 61.729009 226.15065 43.261228 215.69535 19.515629 198.61751 21.481936 183.0813 22.717349 176.58852 33.226747 171.7922 43.36182 169.99048 53.747354 168.0266 64.842578 167.86518 75.867679 168.5354 97.93271 169.96537 119.985439 174.76302 141.27393 181.52857 175.66172 192.8154 211.42049 209.20694 233.31006 234.10866 238.37169 239.99146 240.66349 247.17337 239.38428 248.6946 239.9317 250.377 234.99158 255.10303 227.56885 257.37525Z" fill="#00286e"/>
</g>
</g>
</g>
</g>
</svg>
